<svg xmlns="http://www.w3.org/2000/svg" width="34" height="34" viewBox="0 0 34 34">
  <g id="Bootstrap" transform="translate(-46 183)">
    <path id="Caminho_30" data-name="Caminho 30" d="M29.25,26.983A3.542,3.542,0,0,0,26.8,26.2H20.75v6.191H26.9a3.485,3.485,0,0,0,2.352-.822,3.06,3.06,0,0,0,.935-2.323A2.961,2.961,0,0,0,29.25,26.983Zm-.85-3.995a2.55,2.55,0,0,0,.85-2.04,2.578,2.578,0,0,0-.751-2.111,3.315,3.315,0,0,0-2.082-.609H20.75V23.7h5.667a3.117,3.117,0,0,0,2.04-.708ZM36.333,8H13.667A5.667,5.667,0,0,0,8,13.667V36.333A5.667,5.667,0,0,0,13.667,42H36.333A5.667,5.667,0,0,0,42,36.333V13.667A5.667,5.667,0,0,0,36.333,8Zm-3.1,23.871a4.25,4.25,0,0,1-1.3,1.757,6.4,6.4,0,0,1-2.281,1.162,10.838,10.838,0,0,1-3.3.439H17.237V15.395H26.87a6.843,6.843,0,0,1,4.25,1.218,4.321,4.321,0,0,1,1.615,3.7,4.377,4.377,0,0,1-.652,2.564,4.774,4.774,0,0,1-2.1,1.657h0a4.321,4.321,0,0,1,2.833,1.728,5.78,5.78,0,0,1,.949,3.372,5.553,5.553,0,0,1-.538,2.238Z" transform="translate(38 -191)" fill="#9130ff"/>
  </g>
</svg>
