<svg xmlns="http://www.w3.org/2000/svg" width="30.537" height="34.997" viewBox="0 0 30.537 34.997">
  <g id="csharp_plain_logo_icon_146577" transform="translate(-104 68.8)">
    <path id="Caminho_39" data-name="Caminho 39" d="M40.414,11.055,40.5,11a1.911,1.911,0,0,0-.679-.736L26.155,2.4a1.678,1.678,0,0,0-.877-.2,2.007,2.007,0,0,0-.877.2L10.82,10.291A1.944,1.944,0,0,0,10,11.819V27.578a1.757,1.757,0,0,0,.255.962l-.057.028a1.625,1.625,0,0,0,.538.538L24.372,37a1.678,1.678,0,0,0,.877.2,2.007,2.007,0,0,0,.877-.2l13.58-7.893a1.944,1.944,0,0,0,.82-1.528V11.791a1.385,1.385,0,0,0-.113-.736Zm-15.136,19.8a11.175,11.175,0,1,1,9.7-16.692L31.3,16.289a6.917,6.917,0,1,0,0,6.818l3.65,2.15A11.177,11.177,0,0,1,25.278,30.859ZM39.706,19.118H38.8l-.255,1.132h1.16v1.415H38.292l-.339,1.7H36.566l.339-1.7H35.83l-.34,1.7H34.133l.34-1.7h-.707V20.25h.99l.255-1.132H33.765V17.7h1.5l.34-1.7H36.99l-.34,1.7h1.075l.34-1.7h1.358l-.339,1.7h.622ZM36.113,20.25h1.075l.255-1.132H36.368Z" transform="translate(94 -71)" fill="#68217a"/>
  </g>
</svg>
