<svg id="icon_github" xmlns="http://www.w3.org/2000/svg" width="24" height="24" viewBox="0 0 24 24">
  <path id="Caminho_7" data-name="Caminho 7" d="M12,0A12.014,12.014,0,0,0,0,12,12.249,12.249,0,0,0,9.392,23.988.5.5,0,0,0,10,23.5v-3a.5.5,0,0,0-.5-.5h-1c-1.185,0-2.243-1.462-3.094-2.636l-.249-.342c.349.164.69.334.973.477a14.59,14.59,0,0,0,2.229.981c.028.009.062.026.1.043a1.131,1.131,0,0,0,1.1.049A1.245,1.245,0,0,0,10,17.5v-.349a.5.5,0,0,0-.364-.481C6.863,15.885,5,13.807,5,11.5A4.741,4.741,0,0,1,6.425,8.188a.5.5,0,0,0,.094-.558,2.8,2.8,0,0,1,.148-2.549A4.912,4.912,0,0,1,8.5,6.37a.5.5,0,0,0,.554.147,8.675,8.675,0,0,1,5.893,0A.5.5,0,0,0,15.5,6.37a4.912,4.912,0,0,1,1.832-1.289,2.8,2.8,0,0,1,.148,2.549.5.5,0,0,0,.094.558A4.741,4.741,0,0,1,19,11.5c0,2.422-2.07,4.591-5.033,5.274a.5.5,0,0,0-.33.721A4.3,4.3,0,0,1,14,19.5v4a.5.5,0,0,0,.5.5.512.512,0,0,0,.108-.012A12.249,12.249,0,0,0,24,12,12.014,12.014,0,0,0,12,0Z" transform="translate(0 0)" fill="#fff"/>
  <path id="Caminho_8" data-name="Caminho 8" d="M9.636,16.92A.5.5,0,0,1,10,17.4v-.25a.5.5,0,0,0-.364-.481C6.915,15.9,5.08,13.882,5.013,11.627c0,.041-.013.082-.013.123C5,14.057,6.863,16.135,9.636,16.92Z" transform="translate(0 0)" fill="#fff" opacity="0.2"/>
  <path id="Caminho_9" data-name="Caminho 9" d="M13.967,17.024C16.93,16.341,19,14.172,19,11.75c0-.043-.012-.084-.013-.127-.07,2.371-2.108,4.479-5.02,5.151a.5.5,0,0,0-.342.279.489.489,0,0,0-.016.331.489.489,0,0,1,.016-.081A.5.5,0,0,1,13.967,17.024Z" transform="translate(0 0)" fill="#fff" opacity="0.2"/>
  <path id="Caminho_10" data-name="Caminho 10" d="M12,0A12.014,12.014,0,0,0,0,12c0,.046.005.09.006.135a11.995,11.995,0,0,1,23.988,0c0-.045.006-.09.006-.135A12.014,12.014,0,0,0,12,0Z" transform="translate(0 0)" fill="#fff" opacity="0.2"/>
  <path id="Caminho_11" data-name="Caminho 11" d="M9.392,23.988A.5.5,0,0,0,10,23.5v-.25a.5.5,0,0,1-.608.488A12.242,12.242,0,0,1,.006,11.885c0,.039-.006.076-.006.115A12.249,12.249,0,0,0,9.392,23.988Z" transform="translate(0 0)" fill="#fff" opacity="0.1"/>
  <path id="Caminho_12" data-name="Caminho 12" d="M14.608,23.738a.512.512,0,0,1-.108.012.5.5,0,0,1-.5-.5v.25a.5.5,0,0,0,.5.5.512.512,0,0,0,.108-.012A12.249,12.249,0,0,0,24,12c0-.039-.005-.076-.006-.115A12.242,12.242,0,0,1,14.608,23.738Z" transform="translate(0 0)" fill="#fff" opacity="0.1"/>
  <path id="Caminho_13" data-name="Caminho 13" d="M17.333,4.834A4.912,4.912,0,0,0,15.5,6.123a.5.5,0,0,1-.554.147,8.675,8.675,0,0,0-5.893,0A.5.5,0,0,1,8.5,6.123,4.912,4.912,0,0,0,6.667,4.834,2.567,2.567,0,0,0,6.3,6.248a2.466,2.466,0,0,1,.37-1.164A4.912,4.912,0,0,1,8.5,6.373a.5.5,0,0,0,.554.147,8.675,8.675,0,0,1,5.893,0,.5.5,0,0,0,.554-.147,4.912,4.912,0,0,1,1.832-1.289,2.466,2.466,0,0,1,.37,1.164A2.567,2.567,0,0,0,17.333,4.834Z" transform="translate(0 0)" fill="#fff" opacity="0.1"/>
  <path id="Caminho_14" data-name="Caminho 14" d="M12,0A12.014,12.014,0,0,0,0,12,12.249,12.249,0,0,0,9.392,23.988.5.5,0,0,0,10,23.5v-3a.5.5,0,0,0-.5-.5h-1c-1.185,0-2.243-1.462-3.094-2.636l-.249-.342c.349.164.69.334.973.477a14.59,14.59,0,0,0,2.229.981c.028.009.062.026.1.043a1.131,1.131,0,0,0,1.1.049A1.245,1.245,0,0,0,10,17.5v-.349a.5.5,0,0,0-.364-.481C6.863,15.885,5,13.807,5,11.5A4.741,4.741,0,0,1,6.425,8.188a.5.5,0,0,0,.094-.558,2.8,2.8,0,0,1,.148-2.549A4.912,4.912,0,0,1,8.5,6.37a.5.5,0,0,0,.554.147,8.675,8.675,0,0,1,5.893,0A.5.5,0,0,0,15.5,6.37a4.912,4.912,0,0,1,1.832-1.289,2.8,2.8,0,0,1,.148,2.549.5.5,0,0,0,.094.558A4.741,4.741,0,0,1,19,11.5c0,2.422-2.07,4.591-5.033,5.274a.5.5,0,0,0-.33.721A4.3,4.3,0,0,1,14,19.5v4a.5.5,0,0,0,.5.5.512.512,0,0,0,.108-.012A12.249,12.249,0,0,0,24,12,12.014,12.014,0,0,0,12,0Z" transform="translate(0 0)" fill="#fff"/>
</svg>
