<svg xmlns="http://www.w3.org/2000/svg" width="664.289" height="483.141" viewBox="0 0 664.289 483.141">
  <g id="Imagem_ilustrativa_-_Conteudo_resumo" data-name="Imagem ilustrativa - Conteudo resumo" transform="translate(0 0)">
    <circle id="Elipse_2" data-name="Elipse 2" cx="22.543" cy="22.543" r="22.543" transform="translate(364.404 40.087)" fill="#f2f2f2"/>
    <path id="Caminho_42" data-name="Caminho 42" d="M775.147,588.7c33.507-25.521,49.511-68.408,39.492-109.318q-.373-1.525-.788-3.043c-6.642-24.284-23.075-47.364-47.026-55.124-20.11-6.515-42.061-1.505-63.041-4.1-41.185-5.086-73.114-38.409-95.581-73.3s-39.733-73.944-69.586-102.768c-49.208-47.512-129.479-57.741-190.49-26.814s-99.874,99.54-98.217,167.922S292.161,515.918,351.116,550.6c21.657,12.743,46.706,21.77,71.635,18.611,21.63-2.741,41.284-14.363,62.813-17.814,33.848-5.425,67.48,9.879,96.756,27.712s57.554,38.971,90.822,47.239C705.444,634.38,745.464,611.306,775.147,588.7Z" transform="translate(-213.328 -168.967)" fill="#f2f2f2"/>
    <path id="Caminho_43" data-name="Caminho 43" d="M747.369,210.576c-.735-.49-1.477-.954-2.212-1.427a321.027,321.027,0,0,0-67.8-32.867l-5.522,76.17h-35V165.163c-2.2-.456-4.424-.886-6.644-1.292v88.581h-41.6a86.344,86.344,0,0,1-86.344-86.344h0c-2.229.481-4.441,1-6.653,1.545v84.8H461.71l-5.26-72.633a321.547,321.547,0,0,0-69.18,36.751c-.372.253-.743.515-1.106.768-1.866,1.309-3.706,2.643-5.538,3.993v290.59h99.852l-1.765-24.442L469,353.283H664.529l-9.709,134.2-1.765,24.442H751.8V213.514Q749.6,212.02,747.369,210.576ZM495.59,331.121H467.4L462.191,259.1h33.4Zm134.594,0H582.837v-1.427a5.217,5.217,0,0,0-5.226-5.218H557.028a5.215,5.215,0,0,0-5.218,5.218v1.427H502.243V259.1H630.184Zm6.644,0V259.1h34.522l-5.209,72.016Z" transform="translate(-233.692 -163.871)" fill="#242424"/>
    <path id="Caminho_44" data-name="Caminho 44" d="M206.59,598.162A244,244,0,0,0,230.331,622.6l616.808.844a244,244,0,0,0,23.741-24.442Z" transform="translate(-206.59 -231.503)" fill="#242424"/>
    <path id="Caminho_45" data-name="Caminho 45" d="M702.02,504.821v72.357a3.48,3.48,0,0,0,3.478,3.478H812.723a3.48,3.48,0,0,0,3.478-3.478V504.821a3.482,3.482,0,0,0-3.478-3.474H705.5a3.482,3.482,0,0,0-3.477,3.474Z" transform="translate(-283.743 -216.426)" fill="#3f3d56"/>
    <path id="Caminho_46" data-name="Caminho 46" d="M705,506.185V576.75a1.862,1.862,0,0,0,1.859,1.859H812.295a1.862,1.862,0,0,0,1.859-1.859V506.185a1.863,1.863,0,0,0-1.858-1.862H706.858A1.863,1.863,0,0,0,705,506.185Z" transform="translate(-284.207 -216.889)" fill="#f7ae29"/>
    <path id="Caminho_47" data-name="Caminho 47" d="M699.276,605.685a2.085,2.085,0,0,0,1.641.785H815.731a2.113,2.113,0,0,0,2.065-2.546l-1.782-8.466a2.117,2.117,0,0,0-1.315-1.535,2.046,2.046,0,0,0-.75-.142H702.692a2.049,2.049,0,0,0-.75.141,2.117,2.117,0,0,0-1.315,1.535l-1.782,8.466A2.111,2.111,0,0,0,699.276,605.685Z" transform="translate(-283.242 -230.821)" fill="#2f2e41"/>
    <rect id="Retângulo_11" data-name="Retângulo 11" width="3.536" height="2.122" rx="0.488" transform="translate(529.892 366.609) rotate(180)" fill="#3f3d56"/>
    <rect id="Retângulo_12" data-name="Retângulo 12" width="3.536" height="2.122" rx="0.488" transform="translate(522.819 366.609) rotate(180)" fill="#3f3d56"/>
    <rect id="Retângulo_13" data-name="Retângulo 13" width="3.536" height="2.122" rx="0.488" transform="translate(515.747 366.609) rotate(180)" fill="#3f3d56"/>
    <rect id="Retângulo_14" data-name="Retângulo 14" width="3.536" height="2.122" rx="0.488" transform="translate(508.674 366.609) rotate(180)" fill="#3f3d56"/>
    <rect id="Retângulo_15" data-name="Retângulo 15" width="3.536" height="2.122" rx="0.488" transform="translate(501.602 366.609) rotate(180)" fill="#3f3d56"/>
    <rect id="Retângulo_16" data-name="Retângulo 16" width="3.536" height="2.122" rx="0.488" transform="translate(494.529 366.609) rotate(180)" fill="#3f3d56"/>
    <rect id="Retângulo_17" data-name="Retângulo 17" width="3.536" height="2.122" rx="0.488" transform="translate(487.457 366.609) rotate(180)" fill="#3f3d56"/>
    <rect id="Retângulo_18" data-name="Retângulo 18" width="3.536" height="2.122" rx="0.488" transform="translate(480.385 366.609) rotate(180)" fill="#3f3d56"/>
    <rect id="Retângulo_19" data-name="Retângulo 19" width="3.536" height="2.122" rx="0.488" transform="translate(473.312 366.609) rotate(180)" fill="#3f3d56"/>
    <rect id="Retângulo_20" data-name="Retângulo 20" width="3.536" height="2.122" rx="0.488" transform="translate(466.24 366.609) rotate(180)" fill="#3f3d56"/>
    <rect id="Retângulo_21" data-name="Retângulo 21" width="3.536" height="2.122" rx="0.488" transform="translate(459.167 366.609) rotate(180)" fill="#3f3d56"/>
    <rect id="Retângulo_22" data-name="Retângulo 22" width="3.536" height="2.122" rx="0.488" transform="translate(452.095 366.609) rotate(180)" fill="#3f3d56"/>
    <rect id="Retângulo_23" data-name="Retângulo 23" width="3.536" height="2.122" rx="0.488" transform="translate(445.022 366.609) rotate(180)" fill="#3f3d56"/>
    <rect id="Retângulo_24" data-name="Retângulo 24" width="3.536" height="2.122" rx="0.488" transform="translate(437.95 366.609) rotate(180)" fill="#3f3d56"/>
    <rect id="Retângulo_25" data-name="Retângulo 25" width="3.536" height="2.122" rx="0.488" transform="translate(430.878 366.609) rotate(180)" fill="#3f3d56"/>
    <rect id="Retângulo_26" data-name="Retângulo 26" width="3.536" height="2.122" rx="0.488" transform="translate(423.805 366.609) rotate(180)" fill="#3f3d56"/>
    <rect id="Retângulo_27" data-name="Retângulo 27" width="3.536" height="2.122" rx="0.488" transform="translate(529.975 370.144) rotate(180)" fill="#3f3d56"/>
    <rect id="Retângulo_28" data-name="Retângulo 28" width="3.536" height="2.122" rx="0.488" transform="translate(522.903 370.144) rotate(180)" fill="#3f3d56"/>
    <rect id="Retângulo_29" data-name="Retângulo 29" width="3.536" height="2.122" rx="0.488" transform="translate(515.83 370.144) rotate(180)" fill="#3f3d56"/>
    <rect id="Retângulo_30" data-name="Retângulo 30" width="3.536" height="2.122" rx="0.488" transform="translate(508.758 370.144) rotate(180)" fill="#3f3d56"/>
    <rect id="Retângulo_31" data-name="Retângulo 31" width="3.536" height="2.122" rx="0.488" transform="translate(501.685 370.144) rotate(180)" fill="#3f3d56"/>
    <rect id="Retângulo_32" data-name="Retângulo 32" width="3.536" height="2.122" rx="0.488" transform="translate(494.613 370.144) rotate(180)" fill="#3f3d56"/>
    <rect id="Retângulo_33" data-name="Retângulo 33" width="3.536" height="2.122" rx="0.488" transform="translate(487.541 370.144) rotate(180)" fill="#3f3d56"/>
    <rect id="Retângulo_34" data-name="Retângulo 34" width="3.536" height="2.122" rx="0.488" transform="translate(480.468 370.144) rotate(180)" fill="#3f3d56"/>
    <rect id="Retângulo_35" data-name="Retângulo 35" width="3.536" height="2.122" rx="0.488" transform="translate(473.396 370.144) rotate(180)" fill="#3f3d56"/>
    <rect id="Retângulo_36" data-name="Retângulo 36" width="3.536" height="2.122" rx="0.488" transform="translate(466.323 370.144) rotate(180)" fill="#3f3d56"/>
    <rect id="Retângulo_37" data-name="Retângulo 37" width="3.536" height="2.122" rx="0.488" transform="translate(459.251 370.144) rotate(180)" fill="#3f3d56"/>
    <rect id="Retângulo_38" data-name="Retângulo 38" width="3.536" height="2.122" rx="0.488" transform="translate(452.178 370.144) rotate(180)" fill="#3f3d56"/>
    <rect id="Retângulo_39" data-name="Retângulo 39" width="3.536" height="2.122" rx="0.488" transform="translate(445.106 370.144) rotate(180)" fill="#3f3d56"/>
    <rect id="Retângulo_40" data-name="Retângulo 40" width="3.536" height="2.122" rx="0.488" transform="translate(438.034 370.144) rotate(180)" fill="#3f3d56"/>
    <rect id="Retângulo_41" data-name="Retângulo 41" width="3.536" height="2.122" rx="0.488" transform="translate(430.961 370.144) rotate(180)" fill="#3f3d56"/>
    <rect id="Retângulo_42" data-name="Retângulo 42" width="3.536" height="2.122" rx="0.488" transform="translate(423.889 370.144) rotate(180)" fill="#3f3d56"/>
    <rect id="Retângulo_43" data-name="Retângulo 43" width="28.29" height="2.122" rx="0.488" transform="translate(496.028 374.388) rotate(180)" fill="#3f3d56"/>
    <rect id="Retângulo_44" data-name="Retângulo 44" width="5.037" height="2.636" rx="1.318" transform="translate(435.332 302.871)" fill="#fff"/>
    <rect id="Retângulo_45" data-name="Retângulo 45" width="5.037" height="2.636" rx="1.318" transform="translate(462.791 302.871)" fill="#fff"/>
    <rect id="Retângulo_46" data-name="Retângulo 46" width="5.037" height="2.636" rx="1.318" transform="translate(470.571 302.871)" fill="#fff"/>
    <rect id="Retângulo_47" data-name="Retângulo 47" width="17.558" height="2.636" rx="1.318" transform="translate(442.801 302.652)" fill="#fff"/>
    <rect id="Retângulo_48" data-name="Retângulo 48" width="17.558" height="2.636" rx="1.318" transform="translate(479.412 302.652)" fill="#fff"/>
    <rect id="Retângulo_49" data-name="Retângulo 49" width="5.037" height="2.636" rx="1.318" transform="translate(442.655 308.821)" fill="#fff"/>
    <rect id="Retângulo_50" data-name="Retângulo 50" width="5.037" height="2.636" rx="1.318" transform="translate(470.113 308.821)" fill="#fff"/>
    <rect id="Retângulo_51" data-name="Retângulo 51" width="5.037" height="2.636" rx="1.318" transform="translate(477.893 308.821)" fill="#fff"/>
    <rect id="Retângulo_52" data-name="Retângulo 52" width="17.558" height="2.636" rx="1.318" transform="translate(450.123 308.6)" fill="#fff"/>
    <rect id="Retângulo_53" data-name="Retângulo 53" width="17.558" height="2.636" rx="1.318" transform="translate(486.734 308.6)" fill="#fff"/>
    <rect id="Retângulo_54" data-name="Retângulo 54" width="5.037" height="2.636" rx="1.318" transform="translate(449.977 314.77)" fill="#fff"/>
    <rect id="Retângulo_55" data-name="Retângulo 55" width="5.037" height="2.636" rx="1.318" transform="translate(477.435 314.77)" fill="#fff"/>
    <rect id="Retângulo_56" data-name="Retângulo 56" width="5.037" height="2.636" rx="1.318" transform="translate(485.215 314.77)" fill="#fff"/>
    <rect id="Retângulo_57" data-name="Retângulo 57" width="17.558" height="2.636" rx="1.318" transform="translate(457.445 314.55)" fill="#fff"/>
    <rect id="Retângulo_58" data-name="Retângulo 58" width="17.558" height="2.636" rx="1.318" transform="translate(494.056 314.55)" fill="#fff"/>
    <rect id="Retângulo_59" data-name="Retângulo 59" width="5.037" height="2.636" rx="1.318" transform="translate(457.299 320.719)" fill="#fff"/>
    <rect id="Retângulo_60" data-name="Retângulo 60" width="5.037" height="2.636" rx="1.318" transform="translate(484.757 320.719)" fill="#fff"/>
    <rect id="Retângulo_61" data-name="Retângulo 61" width="5.037" height="2.636" rx="1.318" transform="translate(492.537 320.719)" fill="#fff"/>
    <rect id="Retângulo_62" data-name="Retângulo 62" width="17.558" height="2.636" rx="1.318" transform="translate(464.768 320.5)" fill="#fff"/>
    <rect id="Retângulo_63" data-name="Retângulo 63" width="5.037" height="2.636" rx="1.318" transform="translate(462.791 344.376)" fill="#fff"/>
    <rect id="Retângulo_64" data-name="Retângulo 64" width="5.037" height="2.636" rx="1.318" transform="translate(470.571 344.376)" fill="#fff"/>
    <rect id="Retângulo_65" data-name="Retângulo 65" width="17.558" height="2.636" rx="1.318" transform="translate(479.412 344.596)" fill="#fff"/>
    <rect id="Retângulo_66" data-name="Retângulo 66" width="5.037" height="2.636" rx="1.318" transform="translate(435.332 344.376)" fill="#fff"/>
    <rect id="Retângulo_67" data-name="Retângulo 67" width="17.558" height="2.636" rx="1.318" transform="translate(442.801 344.596)" fill="#fff"/>
    <rect id="Retângulo_68" data-name="Retângulo 68" width="5.037" height="2.636" rx="1.318" transform="translate(442.655 338.427)" fill="#fff"/>
    <rect id="Retângulo_69" data-name="Retângulo 69" width="5.037" height="2.636" rx="1.318" transform="translate(470.113 338.427)" fill="#fff"/>
    <rect id="Retângulo_70" data-name="Retângulo 70" width="5.037" height="2.636" rx="1.318" transform="translate(477.893 338.427)" fill="#fff"/>
    <rect id="Retângulo_71" data-name="Retângulo 71" width="17.558" height="2.636" rx="1.318" transform="translate(450.123 338.646)" fill="#fff"/>
    <rect id="Retângulo_72" data-name="Retângulo 72" width="5.037" height="2.636" rx="1.318" transform="translate(449.977 332.477)" fill="#fff"/>
    <rect id="Retângulo_73" data-name="Retângulo 73" width="5.037" height="2.636" rx="1.318" transform="translate(477.435 332.477)" fill="#fff"/>
    <rect id="Retângulo_74" data-name="Retângulo 74" width="5.037" height="2.636" rx="1.318" transform="translate(485.215 332.477)" fill="#fff"/>
    <rect id="Retângulo_75" data-name="Retângulo 75" width="17.558" height="2.636" rx="1.318" transform="translate(457.445 332.697)" fill="#fff"/>
    <rect id="Retângulo_76" data-name="Retângulo 76" width="5.037" height="2.636" rx="1.318" transform="translate(457.299 326.529)" fill="#fff"/>
    <rect id="Retângulo_77" data-name="Retângulo 77" width="5.037" height="2.636" rx="1.318" transform="translate(484.757 326.529)" fill="#fff"/>
    <rect id="Retângulo_78" data-name="Retângulo 78" width="5.037" height="2.636" rx="1.318" transform="translate(492.537 326.529)" fill="#fff"/>
    <rect id="Retângulo_79" data-name="Retângulo 79" width="17.558" height="2.636" rx="1.318" transform="translate(464.768 326.748)" fill="#fff"/>
    <path id="Caminho_48" data-name="Caminho 48" d="M709.428,641.9l-11.271-17.815,35.377-28.2,14.6-16.177a16.177,16.177,0,0,1,27.37,5.765h0a16.177,16.177,0,0,1-9.768,20.255l-23.09,8.506Z" transform="translate(-283.141 -227.797)" fill="#ffb6b6"/>
    <path id="Caminho_49" data-name="Caminho 49" d="M398.28,500.813V587.4h60.661V500.813a2.911,2.911,0,0,0-2.052-2.786,2.68,2.68,0,0,0-.87-.135H401.21a2.924,2.924,0,0,0-2.93,2.921Zm23.673,29.752a6.476,6.476,0,1,1,12.951,0v10.047a6.476,6.476,0,1,1-12.951,0Z" transform="translate(-236.442 -215.888)"/>
    <path id="Caminho_50" data-name="Caminho 50" d="M398.06,600.632v8.35a1.643,1.643,0,0,0,1.629,1.638h57.773a1.638,1.638,0,0,0,1.629-1.638v-8.35Z" transform="translate(-236.407 -231.887)" fill="#3f3d56"/>
    <path id="Caminho_51" data-name="Caminho 51" d="M285.25,345.432v158.1a7.6,7.6,0,0,0,7.6,7.6H527.134a7.6,7.6,0,0,0,7.6-7.6v-158.1a7.608,7.608,0,0,0-7.6-7.59H292.848a7.608,7.608,0,0,0-7.6,7.59Z" transform="translate(-218.84 -190.963)"/>
    <path id="Caminho_52" data-name="Caminho 52" d="M291.76,348.411V502.592a4.068,4.068,0,0,0,4.061,4.061H526.2a4.068,4.068,0,0,0,4.061-4.061V348.411a4.07,4.07,0,0,0-4.061-4.069H295.821a4.07,4.07,0,0,0-4.061,4.069Z" transform="translate(-219.853 -191.976)" fill="#fff"/>
    <path id="Caminho_53" data-name="Caminho 53" d="M342.3,609.171a2.489,2.489,0,0,0,1.959.937H481.313a2.522,2.522,0,0,0,2.465-3.039l-2.128-10.106a2.527,2.527,0,0,0-1.57-1.832,2.444,2.444,0,0,0-.895-.169H346.373a2.443,2.443,0,0,0-.895.169,2.527,2.527,0,0,0-1.57,1.832l-2.128,10.106A2.52,2.52,0,0,0,342.3,609.171Z" transform="translate(-227.635 -231.004)"/>
    <path id="Caminho_54" data-name="Caminho 54" d="M520.666,369.183H305.1a.857.857,0,1,1,0-1.715H520.666a.857.857,0,1,1,0,1.715Z" transform="translate(-221.798 -195.577)" fill="#242424"/>
    <ellipse id="Elipse_3" data-name="Elipse 3" cx="5.024" cy="5.136" rx="5.024" ry="5.136" transform="translate(92.955 157.243)" fill="#242424"/>
    <ellipse id="Elipse_4" data-name="Elipse 4" cx="5.024" cy="5.136" rx="5.024" ry="5.136" transform="translate(110.31 157.243)" fill="#242424"/>
    <ellipse id="Elipse_5" data-name="Elipse 5" cx="5.024" cy="5.136" rx="5.024" ry="5.136" transform="translate(127.664 157.243)" fill="#242424"/>
    <path id="Caminho_55" data-name="Caminho 55" d="M545.764,351.622H533.438a.933.933,0,0,0,0,1.866h12.326a.933.933,0,1,0,0-1.866Z" transform="translate(-257.348 -193.109)" fill="#242424"/>
    <path id="Caminho_56" data-name="Caminho 56" d="M545.76,355.772H533.434a.933.933,0,1,0,0,1.866H545.76a.933.933,0,1,0,0-1.866Z" transform="translate(-257.344 -193.756)" fill="#242424"/>
    <path id="Caminho_57" data-name="Caminho 57" d="M545.764,359.922H533.438a.933.933,0,0,0,0,1.866h12.326a.933.933,0,1,0,0-1.866Z" transform="translate(-257.348 -194.402)" fill="#242424"/>
    <path id="Caminho_58" data-name="Caminho 58" d="M899.033,595.4a5.417,5.417,0,0,0,5.22,3.656l22.366-.576a5.343,5.343,0,0,0,5.049-3.932l3.165-33.844a8.269,8.269,0,0,0,3.578.735A8.157,8.157,0,1,0,938,545.132a6.908,6.908,0,0,0-1.466.152,5.528,5.528,0,0,0-4.115-1.776l-34.4.888a4.939,4.939,0,0,0-.849.105,5.374,5.374,0,0,0-4.114,6.978Zm36.45-36.993,2.252-8.065a5.492,5.492,0,0,0,.017-2.849c.109,0,.206-.052.315-.052a5.834,5.834,0,0,1,.273,11.665,5.493,5.493,0,0,1-2.858-.7Z" transform="translate(-313.45 -222.992)" fill="#242424"/>
    <path id="Caminho_59" data-name="Caminho 59" d="M897.978,544.5c.733,4.191,8.974,7.137,18.883,6.625,9.112-.42,16.562-3.619,17.927-7.411a5.089,5.089,0,0,0-1.557-.208l-34.4.888A4.939,4.939,0,0,0,897.978,544.5Z" transform="translate(-314.259 -222.991)" fill="#3f3d56"/>
    <path id="Caminho_60" data-name="Caminho 60" d="M922.362,581.594a.42.42,0,0,0,.127-.056l4.857-3.179a.422.422,0,0,0,0-.706l-5.049-3.307a.422.422,0,0,0-.463.706l4.509,2.953-4.318,2.827a.422.422,0,0,0,.335.762Z" transform="translate(-317.945 -227.783)" fill="#6c63ff"/>
    <path id="Caminho_61" data-name="Caminho 61" d="M912.382,582.013a.422.422,0,0,0,.106-.775l-4.477-2.567,4.327-3.214a.422.422,0,1,0-.5-.677l-4.845,3.6a.422.422,0,0,0,.042.7l5.036,2.887A.422.422,0,0,0,912.382,582.013Z" transform="translate(-315.636 -227.848)" fill="#6c63ff"/>
    <path id="Caminho_62" data-name="Caminho 62" d="M920.555,584a.4.4,0,0,0,.116-.049.422.422,0,0,0,.141-.58l-6.885-11.32a.422.422,0,0,0-.721.44l6.885,11.32A.422.422,0,0,0,920.555,584Z" transform="translate(-316.621 -227.405)" fill="#6c63ff"/>
    <rect id="Retângulo_80" data-name="Retângulo 80" width="42.821" height="9.157" rx="3.264" transform="translate(176.778 220.209)" fill="#f7ae29"/>
    <rect id="Retângulo_81" data-name="Retângulo 81" width="86.315" height="9.157" rx="3.264" transform="translate(155.03 238.523)" fill="#e6e6e6"/>
    <rect id="Retângulo_82" data-name="Retângulo 82" width="86.315" height="9.157" rx="3.264" transform="translate(155.03 256.836)" fill="#e6e6e6"/>
    <path id="Caminho_63" data-name="Caminho 63" d="M497.3,532.065l.183.578.01.019L503,549.411l6.337,19.3,11.923,36.271.116,5.634v.019l.886,45.324-2.456,6.145,2.764,10.074s-1.271-15.228-8.09-6.483c-3.862,4.97-8.379,10.055-12.087,14.822q8.1,3.279,16.469,5.933c1.2.385,2.417.751,3.631,1.117l.78.231a225.3,225.3,0,0,0,56.862,9.14c1,.029,1.984.048,2.937.067.337.01.665.019.992.019,1.079.01,2.148.019,3.226.019q3.265,0,6.5-.1a225.3,225.3,0,0,0,47.356-6.4c-.106-6.4-.395-13.888-.809-21.882-.193-3.92-4.517-8.167-4.777-12.27-.183-3.082,3.7-5.981,3.5-9.111-1.31-19.272-2.947-11.874-4.161-25.521q-.188-2.008-.347-3.843c-.78-8.764-1.319-14.245-1.319-14.245l5.182-32.659,8.138-51.276-.626-1.031-.7-.347L602.3,497.114l-2.331-5.971a9.269,9.269,0,0,0-8.562-5.865l-28.277-.116a9.229,9.229,0,0,0-7.522,3.824l-7.657,10.6Z" transform="translate(-251.862 -213.905)" fill="#616161"/>
    <path id="Caminho_64" data-name="Caminho 64" d="M522.332,602.974l-6.405,13.705-4.372,9.361-7.522,39.382-3.766,4-3.226-14.149-33.769,7.5c-1.108-6.154-.3.208-.98-6.543.193-.193.395-.385.6-.578.539-.5.992-.973.982-1.425-.385-23.288.771-62.92,10.421-86.931a50.7,50.7,0,0,1,5.933-11.066c.193-.26.376-.52.559-.78,4.45-6.231,7.262-12.367,11.249-16.729v-.01a.444.444,0,0,0,.067-.068.132.132,0,0,0,.039-.029l27.391-14.524L520.7,557.1l.838,23.731Z" transform="translate(-246.41 -219.967)" fill="#616161"/>
    <path id="Caminho_65" data-name="Caminho 65" d="M650.391,606.928l8,17.118,2.792,5.961,7.52,39.378,3.753,3.987,3.234-14.146,1.52-.312,27.4-5.676,7.987,25.367a15.183,15.183,0,0,0-2.753-19c-.545-.494-1-.974-.987-1.429.455-27.391-1.221-77.406-16.351-97.991-4.805-6.533-7.689-13.039-11.884-17.585-.013-.013-.013-.026-.026-.026L670.392,525.86l-.623-1.026-.7-.351Z" transform="translate(-275.703 -220.029)" fill="#616161"/>
    <circle id="Ellipse_5" data-name="Ellipse 5" cx="37.619" cy="37.619" r="37.619" transform="translate(288.605 187.971)" fill="#ffb6b6"/>
    <path id="Caminho_66" data-name="Caminho 66" d="M636.029,394.56a3.174,3.174,0,0,0-2.271-1l.566-1.57a2.978,2.978,0,0,0-3.343-3.968l-2.06.4.194-1.376a2.984,2.984,0,0,0-3.993-3.225,3.18,3.18,0,0,1-2.735-.194,3.247,3.247,0,0,1-1.621-2.2l-.718-3.462-.076-.186c-3.5-5.825-10.216-10.064-18.439-11.617-7.32-1.393-14.825-.684-22.061-.017-2.871.27-6.112.574-8.814,2.229-2.3,1.418-4.238,4.255-3.841,7.117-7.134-2.187-14.783,2.178-18.574,7.683-4.492,6.552-5.226,14.758-5.344,21.174-.321,15.18,2.811,27.6,9.287,36.92.473.675.591,2.085,1.528,2.558l-.194-.312c1.047.523,2.111,1.368,1.714,2.271-1.14,2.6,6.433,8.35,11.769,10.249,9.734,3.47,22.677,3.174,31.778,1.925l.321-2.153c3.284-.447,5.6-1.3,6.248-2.634,1.148-.979,2.128-1.857,2.98-2.668l.008-.008c.017-.017.051-.042.068-.059,4.112-3.943,5.066-6.188,5.5-9.608A27.56,27.56,0,0,0,612.829,431c15.822,2.448-6.231-16.852,8.51-20.583a4.586,4.586,0,0,1,.515-.127c.431-.1.861-.2,1.275-.321a22.331,22.331,0,0,0,5.673-2.423c4.12-2.508,5.479-5.834,7.607-9.582a2.893,2.893,0,0,0-.38-3.4Z" transform="translate(-258.959 -195.247)" fill="#242424"/>
    <path id="Caminho_67" data-name="Caminho 67" d="M704.89,615.3c-.008,1.477-.025,3.546-.093,6.1q-.013.532-.025,1.089c-.11,4.7-.22,8.645-.4,13.027-.008.3-.017.6-.034.9-.236,6.112-.608,13.23-1.25,24.5-1.19,20.82-3.267,2.862-5.353,10.165-.1.363-.211.794-.312,1.3a23.569,23.569,0,0,1-1.587,5.344c-1.106.659-2.246,1.292-3.369,1.925-3.2,1.781-6.45,3.5-9.726,5.125-1.841.912-3.689,1.807-5.547,2.668-.3.135-.583.27-.87.4a228.717,228.717,0,0,1-29.338,11.195c-1.959.591-3.909,1.165-5.885,1.7-2.06.574-4.12,1.114-6.205,1.621a225.326,225.326,0,0,1-47.355,6.408c-2.153.068-4.323.093-6.5.093-1.081,0-2.144-.008-3.225-.017-.329,0-.659-.008-.988-.017-.954-.025-1.942-.042-2.938-.068a225.139,225.139,0,0,1-56.862-9.143l-.785-.228c-1.216-.371-2.423-.734-3.63-1.123q-8.358-2.647-16.472-5.927-6.193-2.495-12.242-5.353a.286.286,0,0,1-.1-.051c-.844-.388-1.7-.794-2.541-1.207-.11-.059-.228-.118-.346-.177q-4.724-2.3-9.346-4.829c-2.592-5.952-6.239-7.092-8.5-12.326a21.842,21.842,0,0,1-1.418-4.846c0-.017-.008-.034-.008-.059.236,3.141-1-5.572-.008-.034-.008-.1-.017-.211-.025-.338-.025-.3-.059-.675-.11-1.14-2.9-28.275-2.71-60.61-3.968-87.255q-.127-2.583-.262-4.947c-.025-.523-.059-1.038-.093-1.545.059-.152.127-.312.2-.464a.832.832,0,0,1,.059-.127,1.377,1.377,0,0,1,.084-.152c.017-.025.042-.059.059-.084a.767.767,0,0,1,.042-.084c.076-.118.16-.245.253-.363.042-.051.076-.093.118-.135a.68.68,0,0,1,.1-.118.538.538,0,0,1,.093-.11c.034-.034.068-.076.11-.118a.257.257,0,0,1,.068-.068,1.712,1.712,0,0,1,.219-.211,8.117,8.117,0,0,1,.962-.76c.118-.076.245-.152.363-.236a16.157,16.157,0,0,1,2.676-1.283c.321-.118.642-.228.988-.346.127-.034.245-.076.371-.118.186-.059.372-.118.566-.16.963-.287,2-.532,3.124-.76.135-.025.279-.051.422-.084.2-.042.414-.076.625-.11l.878-.152c2.508-.4,5.353-.692,8.493-.886l.886-.051,1.047-.051c.3-.017.6-.025.9-.034s.6-.025.912-.034c.853-.025,1.731-.051,2.626-.068,2.55-.051,5.234-.034,8.054.025,1.309.034,2.643.068,4.01.127.093,0,.177.008.262.008,1.19.042,2.389.093,3.622.16.861.042,1.731.084,2.6.135.819.051,1.646.1,2.482.16.65.034,1.3.084,1.959.127.557.042,1.114.084,1.672.118l.76.051c.414.034.827.059,1.25.1l2.8.228,2.845.253c.954.084,1.917.177,2.879.27l.287.025c.878.093,1.756.177,2.643.27.2.017.414.034.616.059.845.085,1.707.184,2.56.275l.785.084c.668.073,1.327.136,2,.215.886.1,1.79.194,2.668.312.684.076,1.368.152,2.052.236,1.072.127,2.161.262,3.25.405.414.051.827.1,1.241.16,3.107.388,6.248.819,9.439,1.266,4.838.684,9.751,1.427,14.7,2.229s9.94,1.649,14.952,2.541c1.266.228,2.533.456,3.808.692l1.722.329c.979.177,1.959.363,2.938.549s1.959.372,2.938.566l3.5.684c7.674,1.52,15.307,3.141,22.753,4.838,1.224.279,2.448.566,3.664.844q3.647.848,7.227,1.722c.659.152,1.309.312,1.959.473,1.621.405,3.242.811,4.838,1.224l.279.076c1.174.287,2.322.583,3.47.886q4.065,1.064,8,2.153,2.609.722,5.159,1.461c2.541.735,5.032,1.477,7.455,2.229.6.186,1.2.371,1.79.549,1.773.549,3.521,1.106,5.218,1.663,1.351.439,2.668.886,3.968,1.334s2.575.895,3.825,1.342c.8.287,1.6.591,2.389.878,1.14.422,2.263.844,3.36,1.266.338.127.667.262,1,.388.211.093.414.169.616.253.4.16.8.312,1.19.473s.785.312,1.174.481c.38.152.768.312,1.14.473s.751.312,1.123.481c.312.127.616.262.912.4.6.262,1.2.523,1.781.794.287.135.574.262.861.4l.659.3c.093.051.186.093.279.135.211.1.431.211.642.312.49.228.971.473,1.444.7.633.321,1.25.642,1.841.954s1.182.642,1.739.954c.093.051.177.1.27.152.127.068.253.143.38.211.431.245.844.5,1.258.743.81.5,1.579.988,2.3,1.477.16.11.312.22.473.321.532.38,1.038.751,1.511,1.131,0,.008,0,.008.008.008.16.118.312.245.464.363.127.118.262.219.388.338.439.38.844.743,1.216,1.114a4.8,4.8,0,0,1,.355.363,1.02,1.02,0,0,1,.135.135c.169.169.321.338.464.507a.472.472,0,0,1,.059.076c.2.236.388.473.566.709.084.118.177.236.253.355.1.144.2.3.287.439.076.118.144.245.211.363a6.135,6.135,0,0,1,.456.954,4.415,4.415,0,0,1,.228.692,4.942,4.942,0,0,1,.144.684Z" transform="translate(-245.613 -225.721)" fill="#242424"/>
    <path id="Caminho_68" data-name="Caminho 68" d="M704.888,615.3c-.008,1.477-.025,3.546-.093,6.1-.008.355-.025.718-.034,1.089-.084,3.588-.211,8.021-.388,13.027-.008.3-.017.6-.034.9-.236,6.112-.608,13.23-1.25,24.5-1.19,20.82-3.267,2.862-5.353,10.165-5.792-3.563-12.141-7.294-18.929-11.128q-1.836-1.038-3.706-2.085c-13.576-7.573-28.739-15.509-44.569-23.369-.625-.312-1.258-.625-1.883-.929-36.261-17.924-75.841-35.358-107.906-46.992-6.189-2.246-12.1-4.272-17.654-6.053-11.7-3.74-21.816-6.357-29.6-7.489-8.105-1.182-13.7-.76-15.965,1.68q-.127-2.583-.262-4.947-.051-.785-.1-1.545c.052-.139.12-.272.185-.405.009-.02.016-.04.026-.059a.845.845,0,0,1,.059-.127,1.366,1.366,0,0,1,.084-.152.9.9,0,0,1,.1-.169c.076-.118.16-.245.253-.363a2.947,2.947,0,0,1,.22-.253.538.538,0,0,1,.093-.11c.034-.034.068-.076.11-.118a.255.255,0,0,1,.068-.068,1.715,1.715,0,0,1,.22-.211,8.129,8.129,0,0,1,.962-.76c.118-.076.245-.152.363-.236a16.157,16.157,0,0,1,2.676-1.283c.321-.118.642-.228.988-.346.127-.034.245-.076.371-.118.186-.059.371-.118.566-.16.962-.287,2-.532,3.124-.76.338-.068.692-.135,1.047-.194l.878-.152c2.507-.4,5.353-.692,8.493-.886l.886-.051,1.047-.051c.3-.017.6-.025.9-.034s.6-.025.912-.034c.853-.025,1.731-.051,2.626-.068,2.55-.042,5.234-.025,8.054.034,1.309.025,2.643.068,4.01.127.084,0,.177.008.262.008,1.19.034,2.4.093,3.622.152.861.042,1.731.084,2.6.135.819.051,1.646.1,2.482.16.65.034,1.3.084,1.959.127.557.042,1.114.084,1.672.118l2.009.152,2.8.228,2.845.253c.954.084,1.917.177,2.879.27l.287.025c.878.093,1.756.177,2.643.27q7.37.747,15.172,1.748,4.66.6,9.439,1.275c4.838.684,9.751,1.427,14.7,2.22s9.94,1.649,14.952,2.541c1.266.228,2.533.456,3.808.692q2.33.43,4.66.878c.979.186,1.959.372,2.938.566l3.5.684c7.674,1.52,15.307,3.141,22.753,4.838,1.224.279,2.448.566,3.664.844q3.647.848,7.227,1.722c.659.16,1.309.321,1.959.481q2.444.608,4.838,1.216v.008c.093.017.186.042.279.068,1.165.3,2.322.591,3.47.895q4.065,1.064,8,2.144c1.739.49,3.461.971,5.158,1.461,2.541.743,5.032,1.486,7.455,2.229.6.186,1.2.371,1.79.549q2.66.836,5.218,1.663c1.351.439,2.668.886,3.968,1.334s2.575.895,3.825,1.342c.81.287,1.6.583,2.389.87,1.148.422,2.263.844,3.36,1.275.338.127.667.262,1,.388.616.236,1.216.481,1.807.726.4.152.785.312,1.174.481.38.152.768.312,1.14.473s.751.312,1.123.481c.312.127.616.262.912.4.6.262,1.2.523,1.781.794.287.135.574.262.861.4l.659.3c.093.051.186.093.279.135.718.338,1.41.675,2.085,1.013.633.321,1.25.642,1.841.954.7.371,1.368.735,2.009,1.106.127.068.253.143.38.211.431.245.844.5,1.258.743.811.5,1.579.988,2.3,1.477s1.368.971,1.984,1.452c0,.008,0,.008.008.008.3.236.583.473.853.7.439.38.844.743,1.216,1.114a4.8,4.8,0,0,1,.355.363,1.016,1.016,0,0,1,.135.135c.177.194.355.388.524.583.2.236.388.473.566.709.084.118.177.236.253.355.1.143.2.3.287.439.076.118.143.245.211.363a6.124,6.124,0,0,1,.456.954,5.1,5.1,0,0,1,.228.692A4.94,4.94,0,0,1,704.888,615.3Z" transform="translate(-245.611 -225.722)" opacity="0.2"/>
  </g>
</svg>
