<svg xmlns="http://www.w3.org/2000/svg" width="656" height="488.741" viewBox="0 0 656 488.741">
  <g id="Grupo_3" data-name="Grupo 3" opacity="0.15">
    <circle id="b" cx="15.489" cy="15.489" r="15.489" transform="translate(341.432 18.869)" fill="#6c63ff"/>
    <path id="c" d="M433.269,46.6a1.606,1.606,0,0,1-.966-.321l-.017-.013-3.64-2.785a1.618,1.618,0,1,1,1.968-2.568h0l2.358,1.808,5.571-7.269a1.617,1.617,0,0,1,2.267-.3h0l-.035.048.036-.048a1.619,1.619,0,0,1,.3,2.267l-6.553,8.546a1.618,1.618,0,0,1-1.287.631v0Z" transform="translate(-77.883 -6.336)" fill="#fff"/>
    <circle id="d" cx="15.489" cy="15.489" r="15.489" transform="translate(341.432 123.577)" fill="#6c63ff"/>
    <path id="e" d="M433.269,174.6a1.606,1.606,0,0,1-.966-.321l-.017-.013-3.64-2.785a1.618,1.618,0,1,1,1.968-2.568l2.358,1.808,5.571-7.269a1.617,1.617,0,0,1,2.267-.3h0l-.035.048.036-.048a1.619,1.619,0,0,1,.3,2.267l-6.553,8.546a1.618,1.618,0,0,1-1.287.631v0Z" transform="translate(-77.883 -29.628)" fill="#fff"/>
    <path id="Caminho_69" data-name="Caminho 69" d="M483.862,360.755a8.791,8.791,0,0,1,9.987-9.052l14.186-27.831,8.016,14.116-14.7,24.265a8.838,8.838,0,0,1-17.489-1.5h0Z" transform="translate(-88.044 -58.933)" fill="#ffb7b7"/>
    <path id="Caminho_70" data-name="Caminho 70" d="M561.056,573.642H549.923l-5.3-42.939h16.43Z" transform="translate(-99.103 -96.569)" fill="#ffb7b7"/>
    <path id="Caminho_71" data-name="Caminho 71" d="M560.2,593.176H524.3v-.454a13.972,13.972,0,0,1,13.972-13.971H560.2v14.426Z" transform="translate(-95.404 -105.312)" fill="#2f2e41"/>
    <path id="Caminho_72" data-name="Caminho 72" d="M634.829,573.642H623.7L618.4,530.7h16.43Z" transform="translate(-112.527 -96.569)" fill="#ffb7b7"/>
    <path id="Caminho_73" data-name="Caminho 73" d="M633.968,593.176h-35.9v-.454a13.972,13.972,0,0,1,13.972-13.971h21.925v14.426Z" transform="translate(-108.828 -105.312)" fill="#2f2e41"/>
    <path id="Caminho_74" data-name="Caminho 74" d="M503.686,339.349l-4.86,8.1s8.1,0,9.72,12.15l6.48-8.1-11.34-12.15Z" transform="translate(-90.769 -61.749)" fill="#e5e5e5"/>
    <path id="Caminho_75" data-name="Caminho 75" d="M594.318,318.556s12.96,34.019,15.39,55.078,6.48,76.948,6.48,76.948l8.1,72.088-22.679,3.24-9.72-72.9-21.869-72.088-4.86,72.088-4.05,65.608-21.06.81-1.62-68.038-8.91-86.668,4.86-41.309,59.938-4.86Z" transform="translate(-96.354 -57.966)" fill="#2f2e41"/>
    <path id="Caminho_76" data-name="Caminho 76" d="M578.974,192.312l8.1,5.669L597.6,304.088,532,305.708,540.906,232l8.1-21.059,5.846-7.73Z" transform="translate(-96.804 -34.994)" fill="#e5e5e5"/>
    <path id="Caminho_77" data-name="Caminho 77" d="M591.405,269.088l2.479-73.269s4.811.371,6.431,2.8,28.349,7.29,28.349,7.29l-4.86,75.328s20.25,59.938,12.96,63.178-20.249,2.43-20.249,2.43l-25.109-77.758Z" transform="translate(-107.615 -35.632)" fill="#2f2e41"/>
    <path id="Caminho_78" data-name="Caminho 78" d="M538.668,263.015l8.593-49.38-19.122,12.931L533,262.2l-4.05,24.3s-15.39,67.228-10.53,69.658,10.53,0,10.53,0l9.72-68.038V263.015Z" transform="translate(-94.161 -38.874)" fill="#2f2e41"/>
    <path id="Caminho_79" data-name="Caminho 79" d="M530.415,227.462l-5.67,1.62-2.43,32.4-4.05,28.349-19.439,34.829s9.72-6.48,13.77,12.15L534,299.536l-3.589-72.074Z" transform="translate(-90.769 -41.39)" fill="#2f2e41"/>
    <path id="Caminho_80" data-name="Caminho 80" d="M591.273,353.835a8.791,8.791,0,0,1,11.555-6.941l19.319-24.548,5.123,15.4L608.138,358.7a8.838,8.838,0,0,1-16.865-4.864Z" transform="translate(-107.569 -58.655)" fill="#ffb7b7"/>
    <path id="Caminho_81" data-name="Caminho 81" d="M627.722,346.817l-7.29,8.91-9.72-17.009,4.049-7.29Z" transform="translate(-111.128 -60.308)" fill="#e5e5e5"/>
    <path id="Caminho_82" data-name="Caminho 82" d="M626.1,210.9l6.48-3.24s4.86,6.48,5.67,12.15,4.86,12.96,4.86,17.009,11.34,42.119,11.34,42.119l-25.919,52.649s-5.67-19.439-17.82-21.059l20.249-28.349-11.34-20.249L626.1,210.9Z" transform="translate(-111.128 -37.786)" fill="#2f2e41"/>
    <path id="Caminho_83" data-name="Caminho 83" d="M731.411,596.632H419.739a.818.818,0,1,1,0-1.636H731.411a.818.818,0,0,1,0,1.636Z" transform="translate(-76.229 -108.268)" fill="#cbcbcb"/>
    <path id="Caminho_84" data-name="Caminho 84" d="M298.583,196.715H0V128H298.583Z" transform="translate(0 -23.291)" fill="#fff"/>
    <path id="Caminho_85" data-name="Caminho 85" d="M52.031,155.774a2.909,2.909,0,1,0,0,5.819H264.441a2.909,2.909,0,1,0,0-5.819Z" transform="translate(-8.938 -28.345)" fill="#6c63ff"/>
    <path id="Caminho_86" data-name="Caminho 86" d="M52.029,177.113a2.909,2.909,0,0,0-.012,5.819H186.305a2.909,2.909,0,1,0,0-5.819Z" transform="translate(-8.937 -32.228)" fill="#6c63ff"/>
    <path id="Caminho_87" data-name="Caminho 87" d="M298.583,196.715H0V128H298.583ZM4.908,191.807H293.675v-58.9H4.908Z" transform="translate(0 -23.291)" fill="#e5e5e5"/>
    <path id="Caminho_88" data-name="Caminho 88" d="M298.583,324.715H0V256H298.583Z" transform="translate(0 -46.583)" fill="#fff"/>
    <path id="Caminho_89" data-name="Caminho 89" d="M52.031,283.774a2.909,2.909,0,0,0,0,5.819H264.441a2.909,2.909,0,0,0,0-5.819Z" transform="translate(-8.938 -51.637)" fill="#e6e6e6"/>
    <path id="Caminho_90" data-name="Caminho 90" d="M52.029,305.113a2.909,2.909,0,0,0-.012,5.819H186.305a2.909,2.909,0,0,0,0-5.819Z" transform="translate(-8.937 -55.52)" fill="#e6e6e6"/>
    <path id="Caminho_91" data-name="Caminho 91" d="M298.583,324.715H0V256H298.583ZM4.908,319.807H293.675v-58.9H4.908Z" transform="translate(0 -46.583)" fill="#e5e5e5"/>
    <path id="Caminho_92" data-name="Caminho 92" d="M301.583,68.715H3V0H301.583Z" transform="translate(-0.546)" fill="#fff"/>
    <path id="Caminho_93" data-name="Caminho 93" d="M55.032,27.774a2.909,2.909,0,0,0,0,5.819H267.442a2.909,2.909,0,0,0,0-5.819Z" transform="translate(-9.485 -5.054)" fill="#6c63ff"/>
    <path id="Caminho_94" data-name="Caminho 94" d="M55.029,49.113a2.909,2.909,0,0,0-.012,5.819H189.305a2.909,2.909,0,1,0,.011-5.819H55.029Z" transform="translate(-9.483 -8.937)" fill="#6c63ff"/>
    <path id="Caminho_95" data-name="Caminho 95" d="M301.583,68.715H3V0H301.583ZM7.908,63.807H296.675V4.908H7.908Z" transform="translate(-0.546)" fill="#e5e5e5"/>
    <path id="Caminho_96" data-name="Caminho 96" d="M739.248,584.294V525.117s23.062,41.954,0,59.177Z" transform="translate(-134.517 -95.553)" fill="#f1f1f1"/>
    <path id="Caminho_97" data-name="Caminho 97" d="M731.293,588.543,687.7,548.524S734.2,559.907,731.293,588.543Z" transform="translate(-125.137 -99.812)" fill="#f1f1f1"/>
    <circle id="f" cx="15.489" cy="15.489" r="15.489" transform="translate(380.697 269.062)" fill="#6c63ff"/>
    <path id="g" d="M481.269,352.448a1.606,1.606,0,0,1-.966-.321l-.017-.013-3.64-2.785a1.618,1.618,0,1,1,1.968-2.568h0l2.358,1.808,5.571-7.269a1.617,1.617,0,0,1,2.267-.3h0l-.035.048.035-.048a1.619,1.619,0,0,1,.3,2.267l-6.553,8.546a1.618,1.618,0,0,1-1.287.631v0Z" transform="translate(-86.617 -61.989)" fill="#fff"/>
    <circle id="Elipse_6" data-name="Elipse 6" cx="22.171" cy="22.171" r="22.171" transform="translate(437.227 114.318)" fill="#ffb6b6"/>
    <path id="Caminho_98" data-name="Caminho 98" d="M575.745,177.774s6.567-13.3,6.45-18.376-3.7-18.143-5.219-19-17.841-9.151-22.266-6.659S542.5,144.752,534.1,147.059c-2.375.652-.3,12.856-.3,12.856l9.828-1.422s10.247-9.2,10.69-2.936,9.945,3.656,9.945,3.656l.117,5.077,3.889.209,1.071-5.4s1.748,11.016-.511,16.746,6.917,1.932,6.917,1.932Z" transform="translate(-96.98 -24.25)" fill="#2f2e41"/>
  </g>
</svg>
