<svg xmlns="http://www.w3.org/2000/svg" width="973.479" height="364.905" viewBox="0 0 973.479 364.905">
  <g id="Grupo_4" data-name="Grupo 4" opacity="0.1">
    <path id="Path_438" data-name="Path 438" d="M218.143,575.628a21.107,21.107,0,0,0,20.382-3.59c7.139-5.992,9.377-15.861,11.2-25L255.111,520l-11.277,7.765c-8.111,5.584-16.4,11.348-22.019,19.436s-8.065,19.131-3.555,27.883" transform="translate(-190.209 -253.524)" fill="#e6e6e6"/>
    <path id="Path_439" data-name="Path 439" d="M219.591,606.393c-1.419-10.341-2.88-20.816-1.882-31.268.884-9.283,3.717-18.348,9.482-25.784a42.892,42.892,0,0,1,11-9.972c1.1-.694,2.113,1.049,1.017,1.741a40.776,40.776,0,0,0-16.13,19.461c-3.512,8.931-4.075,18.668-3.471,28.155.366,5.737,1.143,11.437,1.923,17.13a1.044,1.044,0,0,1-.7,1.24,1.014,1.014,0,0,1-1.24-.7Z" transform="translate(-189.916 -249.675)" fill="#f2f2f2"/>
    <path id="Path_442" data-name="Path 442" d="M227.734,584.164a15.538,15.538,0,0,0,13.538,6.99c6.855-.325,12.568-5.108,17.71-9.649l15.212-13.431-10.068-.482c-7.24-.347-14.667-.672-21.563,1.563s-13.256,7.607-14.517,14.745" transform="translate(-187.842 -244.039)" fill="#e6e6e6"/>
    <path id="Path_443" data-name="Path 443" d="M215.9,605.341c6.834-12.091,14.759-25.529,28.923-29.825a32.273,32.273,0,0,1,12.165-1.256c1.292.112.969,2.1-.32,1.991a29.984,29.984,0,0,0-19.414,5.136,50.46,50.46,0,0,0-13.344,14.4c-2.21,3.365-4.189,6.873-6.168,10.375C217.112,607.282,215.262,606.473,215.9,605.341Z" transform="translate(-190.239 -242.678)" fill="#f2f2f2"/>
    <path id="Path_438-2" data-name="Path 438" d="M739.039,565.961a29.066,29.066,0,0,0,28.067-4.944c9.831-8.252,12.913-21.841,15.421-34.428l7.418-37.231-15.53,10.693c-11.169,7.69-22.588,15.627-30.321,26.765s-11.106,26.344-4.895,38.4" transform="translate(-86.019 -259.662)" fill="#e6e6e6"/>
    <path id="Path_439-2" data-name="Path 439" d="M741.032,608.328c-1.955-14.241-3.966-28.665-2.591-43.058,1.218-12.783,5.118-25.266,13.058-35.505a59.065,59.065,0,0,1,15.154-13.733c1.515-.956,2.91,1.445,1.4,2.4a56.15,56.15,0,0,0-22.212,26.8c-4.836,12.3-5.612,25.706-4.779,38.772.5,7.9,1.573,15.75,2.648,23.59a1.438,1.438,0,0,1-.97,1.707,1.4,1.4,0,0,1-1.707-.97Z" transform="translate(-85.615 -254.363)" fill="#f2f2f2"/>
    <path id="Path_442-2" data-name="Path 442" d="M752.246,577.716a21.4,21.4,0,0,0,18.643,9.625c9.44-.448,17.307-7.034,24.387-13.288l20.948-18.5-13.864-.664c-9.97-.478-20.2-.925-29.694,2.153s-18.254,10.475-19.991,20.3" transform="translate(-82.759 -246.601)" fill="#e6e6e6"/>
    <path id="Path_443-2" data-name="Path 443" d="M735.953,606.878c9.41-16.65,20.325-35.156,39.828-41.07a44.441,44.441,0,0,1,16.751-1.73c1.779.154,1.335,2.895-.441,2.742a41.29,41.29,0,0,0-26.734,7.073c-7.538,5.131-13.408,12.265-18.375,19.829-3.043,4.634-5.769,9.464-8.494,14.288C737.617,609.551,735.071,608.437,735.953,606.878Z" transform="translate(-86.059 -244.727)" fill="#f2f2f2"/>
    <path id="Caminho_99" data-name="Caminho 99" d="M667.51,345.819a4.411,4.411,0,0,1-2.458-5.331,2.114,2.114,0,0,0,.1-.489h0a2.212,2.212,0,0,0-3.974-1.466h0a2.121,2.121,0,0,0-.245.434,4.411,4.411,0,0,1-5.331,2.458,2.117,2.117,0,0,0-.489-.1h0a2.212,2.212,0,0,0-1.466,3.974h0a2.124,2.124,0,0,0,.434.245,4.411,4.411,0,0,1,2.458,5.331,2.121,2.121,0,0,0-.1.489h0a2.212,2.212,0,0,0,3.974,1.466h0a2.122,2.122,0,0,0,.245-.434,4.411,4.411,0,0,1,5.331-2.458,2.124,2.124,0,0,0,.489.1h0a2.212,2.212,0,0,0,1.466-3.974h0A2.118,2.118,0,0,0,667.51,345.819Z" transform="translate(-102.689 -290.056)" fill="#cbcbcb"/>
    <path id="Caminho_100" data-name="Caminho 100" d="M737.51,508.819a4.411,4.411,0,0,1-2.458-5.331,2.114,2.114,0,0,0,.1-.489h0a2.212,2.212,0,0,0-3.974-1.466h0a2.121,2.121,0,0,0-.245.434,4.411,4.411,0,0,1-5.331,2.458,2.125,2.125,0,0,0-.489-.1h0a2.212,2.212,0,0,0-1.466,3.974h0a2.116,2.116,0,0,0,.434.245,4.411,4.411,0,0,1,2.458,5.331,2.117,2.117,0,0,0-.1.489h0a2.212,2.212,0,0,0,3.974,1.466h0a2.114,2.114,0,0,0,.245-.434,4.411,4.411,0,0,1,5.331-2.458,2.122,2.122,0,0,0,.489.1h0a2.212,2.212,0,0,0,1.466-3.974h0A2.125,2.125,0,0,0,737.51,508.819Z" transform="translate(-88.665 -257.4)" fill="#f1f1f1"/>
    <path id="Caminho_101" data-name="Caminho 101" d="M370.51,413.819a4.411,4.411,0,0,1-2.458-5.331,2.116,2.116,0,0,0,.1-.489h0a2.212,2.212,0,0,0-3.974-1.466h0a2.122,2.122,0,0,0-.245.434,4.411,4.411,0,0,1-5.331,2.458,2.119,2.119,0,0,0-.489-.1h0a2.212,2.212,0,0,0-1.466,3.974h0a2.12,2.12,0,0,0,.434.245,4.411,4.411,0,0,1,2.458,5.331,2.121,2.121,0,0,0-.1.489h0a2.212,2.212,0,0,0,3.973,1.466h0a2.12,2.12,0,0,0,.245-.434,4.411,4.411,0,0,1,5.331-2.458,2.122,2.122,0,0,0,.489.1h0a2.212,2.212,0,0,0,1.466-3.974h0a2.122,2.122,0,0,0-.434-.245Z" transform="translate(-162.192 -276.432)" fill="#f1f1f1"/>
    <circle id="Elipse_7" data-name="Elipse 7" cx="7.202" cy="7.202" r="7.202" transform="translate(384.895 52.815)" fill="#f1f1f1"/>
    <circle id="Elipse_8" data-name="Elipse 8" cx="7.202" cy="7.202" r="7.202" transform="translate(769.006 33.61)" fill="#6c63ff"/>
    <circle id="Elipse_9" data-name="Elipse 9" cx="7.202" cy="7.202" r="7.202" transform="translate(209.645)" fill="#cbcbcb"/>
    <circle id="Elipse_10" data-name="Elipse 10" cx="51.696" cy="51.696" r="51.696" transform="translate(137.455 238.335)" fill="#2f2e41"/>
    <rect id="Retângulo_83" data-name="Retângulo 83" width="15.705" height="28.138" transform="translate(165.592 330.603)" fill="#2f2e41"/>
    <rect id="Retângulo_84" data-name="Retângulo 84" width="15.705" height="28.138" transform="translate(197.003 330.603)" fill="#2f2e41"/>
    <ellipse id="Elipse_11" data-name="Elipse 11" cx="13.087" cy="4.908" rx="13.087" ry="4.908" transform="translate(165.592 354.16)" fill="#2f2e41"/>
    <ellipse id="Elipse_12" data-name="Elipse 12" cx="13.087" cy="4.908" rx="13.087" ry="4.908" transform="translate(197.003 353.505)" fill="#2f2e41"/>
    <ellipse id="Elipse_13" data-name="Elipse 13" cx="28.679" cy="9.003" rx="28.679" ry="9.003" transform="translate(211.847 274.998) rotate(-45.022)" fill="#2f2e41"/>
    <ellipse id="Elipse_14" data-name="Elipse 14" cx="9.003" cy="28.679" rx="9.003" ry="28.679" transform="translate(100.568 250.757) rotate(-44.978)" fill="#2f2e41"/>
    <circle id="Elipse_15" data-name="Elipse 15" cx="17.668" cy="17.668" r="17.668" transform="translate(169.307 265.037)" fill="#fff"/>
    <circle id="Elipse_16" data-name="Elipse 16" cx="5.889" cy="5.889" r="5.889" transform="translate(181.086 276.816)" fill="#3f3d56"/>
    <path id="Caminho_102" data-name="Caminho 102" d="M365.754,561.743a11.49,11.49,0,1,1-22.609,4.116h0l0-.022c-1.13-6.244,3.7-8.454,9.942-9.584S364.624,555.5,365.754,561.743Z" transform="translate(-164.754 -246.361)" fill="#fff"/>
    <path id="Caminho_103" data-name="Caminho 103" d="M395.043,584.823a4.394,4.394,0,0,0-4.389,4.389v9.168a4.394,4.394,0,0,0,4.389,4.389h70.616a4.394,4.394,0,0,0,4.389-4.389v-9.168a4.394,4.394,0,0,0-4.389-4.389Z" transform="translate(-155.202 -240.537)" fill="#e5e5e5"/>
    <path id="Caminho_104" data-name="Caminho 104" d="M430.044,579.885a1.9,1.9,0,0,0-2.6.7l-2.624,4.545-2.572-5.082a1.9,1.9,0,1,0-3.4,1.718l2,3.955h-.733v18.489h9.788V585.718h-1.034l1.867-3.233a1.9,1.9,0,0,0-.7-2.6Z" transform="translate(-149.593 -241.703)" fill="#6c63ff"/>
    <path id="Caminho_105" data-name="Caminho 105" d="M355.843,516.559a91.329,91.329,0,0,1-27.086-4.138,3.035,3.035,0,0,1-2.1-2.878V488.5a3,3,0,0,1,3-3H382.47a3,3,0,0,1,3,3v21.03a3.008,3.008,0,0,1-2.135,2.88A95.048,95.048,0,0,1,355.843,516.559Z" transform="translate(-168.024 -260.435)" fill="#6c63ff"/>
    <path id="Caminho_106" data-name="Caminho 106" d="M384.771,488.4v3.517l-28.58,10.023a2.419,2.419,0,0,1-1.645-.024L327.154,491.63V488.4a2.408,2.408,0,0,1,2.4-2.4H382.37A2.408,2.408,0,0,1,384.771,488.4Z" transform="translate(-167.923 -260.335)" opacity="0.2"/>
    <path id="Caminho_107" data-name="Caminho 107" d="M358.01,501.658a3.005,3.005,0,0,1-1.055-.191L316.022,486.1a3,3,0,0,1,.084-5.649l38.514-13.176a3.031,3.031,0,0,1,1.92-.008l42.984,14.328a3,3,0,0,1,.044,5.679L359,501.49a3,3,0,0,1-.992.168Z" transform="translate(-170.544 -264.119)" fill="#6c63ff"/>
    <path id="Caminho_108" data-name="Caminho 108" d="M125.354,199.9h-1.2V182.5h36.611v1.2h-35.41Z" transform="translate(24.874 36.563)" fill="#3f3d56"/>
    <circle id="Elipse_17" data-name="Elipse 17" cx="2.401" cy="2.401" r="2.401" transform="translate(147.227 235.268)" fill="#3f3d56"/>
    <circle id="Elipse_18" data-name="Elipse 18" cx="51.696" cy="51.696" r="51.696" transform="translate(436.341 238.335)" fill="#2f2e41"/>
    <rect id="Retângulo_85" data-name="Retângulo 85" width="15.705" height="28.138" transform="translate(464.478 330.603)" fill="#2f2e41"/>
    <rect id="Retângulo_86" data-name="Retângulo 86" width="15.705" height="28.138" transform="translate(495.889 330.603)" fill="#2f2e41"/>
    <ellipse id="Elipse_19" data-name="Elipse 19" cx="13.087" cy="4.908" rx="13.087" ry="4.908" transform="translate(464.478 354.16)" fill="#2f2e41"/>
    <ellipse id="Elipse_20" data-name="Elipse 20" cx="13.087" cy="4.908" rx="13.087" ry="4.908" transform="translate(495.889 353.505)" fill="#2f2e41"/>
    <ellipse id="Elipse_21" data-name="Elipse 21" cx="28.679" cy="9.003" rx="28.679" ry="9.003" transform="translate(510.732 274.997) rotate(-45.022)" fill="#2f2e41"/>
    <ellipse id="Elipse_22" data-name="Elipse 22" cx="28.679" cy="9.003" rx="28.679" ry="9.003" transform="translate(410.744 328.713) rotate(-55.225)" fill="#2f2e41"/>
    <circle id="Elipse_23" data-name="Elipse 23" cx="17.668" cy="17.668" r="17.668" transform="translate(468.193 265.037)" fill="#fff"/>
    <circle id="Elipse_24" data-name="Elipse 24" cx="5.889" cy="5.889" r="5.889" transform="translate(485.973 270.814)" fill="#3f3d56"/>
    <path id="Caminho_109" data-name="Caminho 109" d="M622.713,561.743c1.733,6.243-4.58,12.226-14.1,13.362s-18.644-3-20.378-9.247h0l-.006-.022c-1.724-6.244,5.639-8.454,15.162-9.584S620.989,555.5,622.713,561.743Z" transform="translate(-115.669 -246.361)" fill="#fff"/>
    <path id="Caminho_110" data-name="Caminho 110" d="M592.314,520.78a91.327,91.327,0,0,1-26.674,6.266,3.035,3.035,0,0,1-3.025-1.885l-7.85-19.523a3,3,0,0,1,1.665-3.9l49-19.7a3,3,0,0,1,3.9,1.665l7.846,19.512a3.008,3.008,0,0,1-.907,3.469A95.05,95.05,0,0,1,592.314,520.78Z" transform="translate(-122.366 -261.174)" fill="#6c63ff"/>
    <path id="Caminho_111" data-name="Caminho 111" d="M608.678,483.818l1.312,3.263-22.778,19.962a2.42,2.42,0,0,1-1.535.591l-29.252.675-1.2-3a2.408,2.408,0,0,1,1.332-3.123l49-19.7a2.408,2.408,0,0,1,3.123,1.332Z" transform="translate(-122.266 -261.074)" opacity="0.2"/>
    <path id="Caminho_112" data-name="Caminho 112" d="M587.945,505.713a3,3,0,0,1-1.05.217l-43.712,1.01a3,3,0,0,1-2.03-5.272l30.818-26.593a3.031,3.031,0,0,1,1.778-.724l45.227-2.742a3,3,0,0,1,2.159,5.253L588.8,505.187a3,3,0,0,1-.858.526Z" transform="translate(-125.258 -263.219)" fill="#6c63ff"/>
    <path id="Caminho_113" data-name="Caminho 113" d="M357.616,217.667l-1.114.448-6.493-16.148,33.967-13.659.448,1.114-32.855,13.211Z" transform="translate(70.122 37.726)" fill="#3f3d56"/>
    <circle id="Elipse_25" data-name="Elipse 25" cx="2.401" cy="2.401" r="2.401" transform="translate(425.228 254.33)" fill="#3f3d56"/>
    <path id="Caminho_114" data-name="Caminho 114" d="M768.629,444.655a91.328,91.328,0,0,1-20.806-17.829,3.035,3.035,0,0,1-.264-3.555l11.122-17.863a3,3,0,0,1,4.134-.961l44.835,27.915a3,3,0,0,1,.961,4.134L797.5,454.349a3.008,3.008,0,0,1-3.335,1.316A95.049,95.049,0,0,1,768.629,444.655Z" transform="translate(-83.788 -276.764)" fill="#6c63ff"/>
    <path id="Caminho_115" data-name="Caminho 115" d="M806.37,436.078l-1.859,2.986-29.56-6.6a2.419,2.419,0,0,1-1.383-.89l-17.816-23.21,1.707-2.741a2.408,2.408,0,0,1,3.307-.769L805.6,432.771a2.408,2.408,0,0,1,.769,3.307Z" transform="translate(-82.056 -276.664)" opacity="0.2"/>
    <path id="Caminho_116" data-name="Caminho 116" d="M777.652,431.285a3,3,0,0,1-.795-.719l-26.625-34.683a3,3,0,0,1,3.057-4.751l39.658,9.171a3.031,3.031,0,0,1,1.634,1.008L823.5,436.194a3,3,0,0,1-2.964,4.844l-41.951-9.371a3,3,0,0,1-.931-.382Z" transform="translate(-83.286 -279.357)" fill="#6c63ff"/>
    <path id="Caminho_117" data-name="Caminho 117" d="M552.777,111.988l-1.019-.635,9.2-14.775,31.079,19.351-.635,1.018-30.06-18.716Z" transform="translate(110.542 19.349)" fill="#3f3d56"/>
    <circle id="Elipse_26" data-name="Elipse 26" cx="2.401" cy="2.401" r="2.401" transform="translate(659.774 129.637)" fill="#3f3d56"/>
    <circle id="Elipse_27" data-name="Elipse 27" cx="51.696" cy="51.696" r="51.696" transform="translate(758.211 179.518)" fill="#2f2e41"/>
    <rect id="Retângulo_87" data-name="Retângulo 87" width="15.705" height="28.138" transform="matrix(0.853, -0.521, 0.521, 0.853, 832.344, 266.214)" fill="#2f2e41"/>
    <rect id="Retângulo_88" data-name="Retângulo 88" width="15.705" height="28.138" transform="matrix(0.853, -0.521, 0.521, 0.853, 805.543, 282.594)" fill="#2f2e41"/>
    <ellipse id="Elipse_28" data-name="Elipse 28" cx="13.087" cy="4.908" rx="13.087" ry="4.908" transform="matrix(0.853, -0.521, 0.521, 0.853, 835.695, 291.775)" fill="#2f2e41"/>
    <ellipse id="Elipse_29" data-name="Elipse 29" cx="13.087" cy="4.908" rx="13.087" ry="4.908" transform="matrix(0.853, -0.521, 0.521, 0.853, 808.552, 307.596)" fill="#2f2e41"/>
    <ellipse id="Elipse_30" data-name="Elipse 30" cx="9.003" cy="28.679" rx="9.003" ry="28.679" transform="translate(733.925 188.342) rotate(-44.978)" fill="#2f2e41"/>
    <ellipse id="Elipse_31" data-name="Elipse 31" cx="9.003" cy="28.679" rx="9.003" ry="28.679" transform="translate(839.689 233.055) rotate(-34.775)" fill="#2f2e41"/>
    <circle id="Elipse_32" data-name="Elipse 32" cx="17.668" cy="17.668" r="17.668" transform="translate(776.408 199.018)" fill="#fff"/>
    <circle id="Elipse_33" data-name="Elipse 33" cx="5.889" cy="5.889" r="5.889" transform="translate(782.185 204.795)" fill="#3f3d56"/>
    <path id="Caminho_118" data-name="Caminho 118" d="M837.271,503.651c-3.35,5.489,1.114,12.915,9.97,16.586s18.753,2.2,22.1-3.292h0l.012-.02c3.342-5.493-3.149-9.6-12.009-13.268S840.613,498.159,837.271,503.651Z" transform="translate(-65.947 -257.493)" fill="#fff"/>
    <path id="Caminho_119" data-name="Caminho 119" d="M854.9,440.834c4.616-18.59,24.992-29.529,45.511-24.434s33.411,24.3,28.795,42.885-19.93,18.65-40.449,13.555S850.283,459.424,854.9,440.834Z" transform="translate(-62.339 -274.53)" fill="#e6e6e6"/>
    <path id="Caminho_120" data-name="Caminho 120" d="M1166.779,602.4H195.7a1.2,1.2,0,1,1,0-2.4h971.079a1.2,1.2,0,0,1,0,2.4Z" transform="translate(-194.5 -237.496)" fill="#cbcbcb"/>
  </g>
</svg>
