<svg xmlns="http://www.w3.org/2000/svg" width="26.216" height="35.563" viewBox="0 0 26.216 35.563">
  <g id="_x31_81-java" transform="translate(208.552 -3)">
    <g id="Grupo_2" data-name="Grupo 2" transform="translate(-208.553 3)">
      <path id="Caminho_31" data-name="Caminho 31" d="M139.465,281.269a11.231,11.231,0,0,1,1.625-.868s-2.688.486-5.362.709a48.857,48.857,0,0,1-8.55.09c-4.174-.556,2.292-2.091,2.292-2.091a12.3,12.3,0,0,0-5.6,1.32C120.226,282.192,132.9,283,139.465,281.269Z" transform="translate(-120.382 -259.535)" fill="#5382a1"/>
      <path id="Caminho_32" data-name="Caminho 32" d="M200.329,45.5c-1.32-2.966-5.772-5.57,0-10.127,7.2-5.681,3.508-9.377,3.508-9.377,1.493,5.869-5.251,7.647-7.689,11.294C194.488,39.787,196.961,42.461,200.329,45.5Z" transform="translate(-187.178 -26)" fill="#f8981d"/>
      <path id="Caminho_33" data-name="Caminho 33" d="M264.9,119.975c.007,0-12.169,3.042-6.355,9.738,1.716,1.973-.451,3.751-.451,3.751s4.355-2.25,2.355-5.063C258.578,125.775,257.147,124.469,264.9,119.975Z" transform="translate(-243.787 -112.71)" fill="#f8981d"/>
      <path id="Caminho_34" data-name="Caminho 34" d="M352.381,281.626a.845.845,0,0,1-.139.181c8.911-2.341,5.633-8.259,1.375-6.758a1.2,1.2,0,0,0-.569.438,4.872,4.872,0,0,1,.764-.208c2.153-.451,5.244,2.882-1.431,6.348Z" transform="translate(-331.694 -255.573)" fill="#5382a1"/>
      <path id="Caminho_35" data-name="Caminho 35" d="M110.413,415.4s1.007.827-1.1,1.473c-4.022,1.215-16.725,1.583-20.254.049-1.271-.549,1.111-1.32,1.861-1.479a5.041,5.041,0,0,1,1.229-.139c-1.41-.993-9.12,1.952-3.917,2.792,14.183,2.306,25.866-1.035,22.185-2.7Z" transform="translate(-86.447 -385.016)" fill="#5382a1"/>
      <path id="Caminho_36" data-name="Caminho 36" d="M175.164,381.776c-5.466,1.528,3.327,4.681,10.286,1.7a12.907,12.907,0,0,1-1.959-.958,20.326,20.326,0,0,1-7.362.313c-2.327-.264-.965-1.056-.965-1.056Z" transform="translate(-166.729 -354.271)" fill="#5382a1"/>
      <path id="Caminho_37" data-name="Caminho 37" d="M163.694,444.483a52.642,52.642,0,0,1-16.2.25c0-.007.82.674,5.029.945,6.4.41,16.239-.229,16.468-3.258,0,0-.444,1.146-5.293,2.063Z" transform="translate(-142.771 -410.227)" fill="#5382a1"/>
      <path id="Caminho_38" data-name="Caminho 38" d="M172.031,332.286a28.69,28.69,0,0,1-9.5.458c-2.327-.243-.806-1.368-.806-1.368-6.029,2,3.348,4.265,11.773,1.8A4.194,4.194,0,0,1,172.031,332.286Z" transform="translate(-154.136 -307.767)" fill="#5382a1"/>
    </g>
  </g>
</svg>
