<svg xmlns="http://www.w3.org/2000/svg" width="34" height="34" viewBox="0 0 34 34">
  <g id="_x31_87-js" transform="translate(-25.622 -26.001)">
    <g id="Grupo_1" data-name="Grupo 1" transform="translate(26.002 26.001)">
      <rect id="Retângulo_3" data-name="Retângulo 3" width="34" height="34" transform="translate(-0.38 0)" fill="#f0db4f"/>
      <path id="Caminho_22" data-name="Caminho 22" d="M156.316,247.993c0,3.272-1.921,4.765-4.72,4.765a4.908,4.908,0,0,1-4.742-2.889l2.574-1.553c.5.878.946,1.621,2.034,1.621,1.036,0,1.7-.405,1.7-1.988V237.21h3.159v10.783Z" transform="translate(-138.021 -221.774)" fill="#323330"/>
      <path id="Caminho_23" data-name="Caminho 23" d="M305.6,250.475a6.063,6.063,0,0,1-5.756-3.227l2.574-1.486a3.447,3.447,0,0,0,3.114,1.921c1.306,0,2.146-.653,2.146-1.561,0-1.081-.855-1.463-2.3-2.1l-.788-.338c-2.281-.968-3.79-2.191-3.79-4.765,0-2.371,1.808-4.172,4.622-4.172a4.653,4.653,0,0,1,4.487,2.529l-2.461,1.576a2.148,2.148,0,0,0-2.034-1.351,1.371,1.371,0,0,0-1.508,1.351c0,.946.585,1.328,1.944,1.921l.788.338c2.686,1.148,4.195,2.326,4.195,4.968,0,2.836-2.236,4.4-5.23,4.4Z" transform="translate(-279.831 -219.491)" fill="#323330"/>
    </g>
  </g>
</svg>
