<svg xmlns="http://www.w3.org/2000/svg" width="39.224" height="35.025" viewBox="0 0 39.224 35.025">
  <g id="_7423888_react_react_native_icon" data-name="7423888_react_react native_icon" transform="translate(-16.415 -2.631)">
    <circle id="Elipse_1" data-name="Elipse 1" cx="3.583" cy="3.583" r="3.583" transform="translate(32.444 16.541)" fill="#61dafb"/>
    <path id="Caminho_29" data-name="Caminho 29" d="M36.027,33.3c2.813,2.736,5.587,4.354,7.822,4.354a3.872,3.872,0,0,0,2-.5c2-1.156,2.736-4.046,2.042-8.169-.116-.732-.27-1.464-.462-2.235.771-.231,1.464-.462,2.158-.694,3.892-1.5,6.049-3.583,6.049-5.857,0-2.312-2.158-4.393-6.049-5.857a17.675,17.675,0,0,0-2.158-.694c.193-.771.347-1.5.462-2.235.655-4.2-.077-7.128-2.081-8.284a3.872,3.872,0,0,0-2-.5c-2.2,0-5.009,1.618-7.822,4.354C33.214,4.25,30.44,2.631,28.205,2.631a3.872,3.872,0,0,0-2,.5c-2,1.156-2.736,4.046-2.042,8.169.116.732.27,1.464.462,2.235-.771.231-1.464.462-2.158.694-3.892,1.5-6.049,3.583-6.049,5.857,0,2.312,2.158,4.393,6.049,5.857a17.676,17.676,0,0,0,2.158.694c-.193.771-.347,1.5-.462,2.235-.655,4.123.077,7.051,2.042,8.169a3.872,3.872,0,0,0,2,.5C30.44,37.617,33.214,36,36.027,33.3Zm-2.158-5.2c.694.039,1.426.039,2.158.039s1.464,0,2.158-.039c-.694.925-1.426,1.772-2.158,2.582C35.3,29.873,34.563,29.025,33.869,28.1Zm-4.778-3.969c.385.655.732,1.272,1.156,1.888-1.194-.154-2.312-.347-3.391-.578.347-1.04.732-2.119,1.194-3.2C28.36,22.86,28.706,23.515,29.092,24.132Zm-2.235-9.286c1.079-.231,2.2-.424,3.391-.578-.385.616-.771,1.233-1.156,1.888s-.732,1.272-1.04,1.927A25.758,25.758,0,0,1,26.857,14.846Zm2.119,5.279c.5-1.04,1.04-2.081,1.657-3.121.578-1,1.233-2,1.888-3.005,1.156-.077,2.312-.116,3.506-.116,1.233,0,2.389.039,3.506.116.694,1,1.31,2,1.888,3.005.616,1.04,1.156,2.081,1.657,3.121-.5,1.04-1.04,2.081-1.657,3.121-.578,1-1.233,2-1.888,3.005-1.156.077-2.312.116-3.506.116-1.233,0-2.389-.039-3.506-.116-.694-1-1.31-2-1.888-3.005C30.016,22.205,29.477,21.165,28.976,20.124Zm15.066-2.081L43,16.117c-.385-.655-.732-1.272-1.156-1.888,1.194.154,2.312.347,3.391.578C44.889,15.886,44.5,16.965,44.042,18.044Zm0,4.161c.462,1.079.848,2.158,1.194,3.2-1.079.231-2.2.424-3.391.578.385-.616.771-1.233,1.156-1.888C43.348,23.515,43.695,22.86,44.042,22.205Zm.886,13.37a2.091,2.091,0,0,1-1.117.27c-1.888,0-4.238-1.541-6.55-3.853a40.342,40.342,0,0,0,3.275-4.046,35.288,35.288,0,0,0,5.163-.809,19.915,19.915,0,0,1,.424,2.081C46.662,32.493,46.238,34.843,44.928,35.575Zm2-20.306c4.315,1.233,6.9,3.121,6.9,4.855,0,1.5-1.772,3.005-4.893,4.2-.616.231-1.31.462-2,.655a40.5,40.5,0,0,0-1.888-4.855A34.9,34.9,0,0,0,46.931,15.27ZM43.849,4.4a2.182,2.182,0,0,1,1.117.27c1.272.732,1.734,3.044,1.194,6.358-.116.655-.27,1.349-.424,2.081a50,50,0,0,0-5.163-.809A35.6,35.6,0,0,0,37.3,8.257C39.611,5.984,41.961,4.4,43.849,4.4Zm-5.664,7.745c-.694-.039-1.426-.039-2.158-.039s-1.464,0-2.158.039c.694-.925,1.426-1.772,2.158-2.582C36.759,10.376,37.491,11.262,38.185,12.149ZM27.127,4.674a2.091,2.091,0,0,1,1.117-.27c1.888,0,4.238,1.541,6.55,3.853A40.342,40.342,0,0,0,31.519,12.3a35.288,35.288,0,0,0-5.163.809,19.917,19.917,0,0,1-.424-2.081C25.393,7.756,25.816,5.444,27.127,4.674Zm-2,20.306c-4.315-1.233-6.9-3.121-6.9-4.855,0-1.5,1.772-3.005,4.893-4.2.616-.231,1.31-.462,2-.655a40.5,40.5,0,0,0,1.888,4.855A36.868,36.868,0,0,0,25.123,24.979Zm.809,4.238c.116-.655.27-1.349.424-2.081a50,50,0,0,0,5.163.809,35.6,35.6,0,0,0,3.275,4.046c-2.312,2.273-4.662,3.853-6.55,3.853a2.182,2.182,0,0,1-1.117-.27C25.816,34.843,25.393,32.493,25.932,29.218Z" transform="translate(0 0)" fill="#61dafb"/>
  </g>
</svg>
